<?xml version="1.0" encoding="utf-8"?>
<!-- Generator: Adobe Illustrator 25.0.1, SVG Export Plug-In . SVG Version: 6.00 Build 0)  -->
<svg version="1.1" id="Layer_1" xmlns="http://www.w3.org/2000/svg" xmlns:xlink="http://www.w3.org/1999/xlink" x="0px" y="0px"
	 viewBox="0 0 1000 1000" style="enable-background:new 0 0 1000 1000;" xml:space="preserve">
<style type="text/css">
	.st0{fill:#E3EEFA;}
	.st1{fill:#E3EEFA;stroke:#E3EEFA;stroke-width:25;stroke-miterlimit:10;}
</style>
<g>
	<path class="st0" d="M510.67,694.5c-129.54,0-259.08,0.07-388.62-0.18c-7.4-0.01-15.34-1.23-22.06-4.43
		c-12.53-5.97-19.27-17.76-20.71-33.01c-0.31-3.31-0.35-6.67-0.35-10c-0.02-148.48-0.04-296.97,0.08-445.45
		c0.01-6.59,0.37-13.55,2.23-19.7c4.74-15.65,14.95-24.89,29.66-27.48c3.84-0.68,7.79-0.76,11.69-0.76
		c258.85-0.03,517.7-0.03,776.54,0c4.13,0,8.3,0.16,12.38,0.82c16.38,2.66,29.3,17.77,31.1,36.18c0.3,3.06,0.33,6.16,0.33,9.23
		c0.02,149.51,0.03,299.02,0,448.53c0,24.01-10.74,40.71-29.25,45.12c-4.66,1.11-9.6,1.09-14.41,1.09
		C769.74,694.51,640.2,694.5,510.67,694.5z M896.89,298.08c-47.63-2.65-81.39-43.62-83.29-93.71c-3.11,0-6.28,0-9.45,0
		c-192.84,0-385.68,0-578.52,0c-1.61,0-3.24,0.16-4.83-0.03c-4.14-0.49-5.43,1.49-5.8,6.09c-4,49.7-38.12,85.43-82.76,86.99
		c-2.43,0.08-4.86,0.29-7.07,0.42c0,84.74,0,168.56,0,253.14c4.36,0,8.02-0.2,11.66,0.03c40.31,2.5,74.97,39.59,77.96,84.12
		c0.49,7.31,2.65,8.66,8.59,8.65c191.69-0.15,383.38-0.13,575.06-0.13c2.45,0,4.9,0,7.01,0c7.24-60.44,37.72-91.12,91.43-93.76
		C896.89,465.83,896.89,381.95,896.89,298.08z M124.51,245.82c25.43,3.52,48.01-17.96,44.02-41.4c-13.37,0-26.88-0.11-40.38,0.19
		c-1.24,0.03-3.44,2.66-3.47,4.13C124.39,221,124.51,233.26,124.51,245.82z M896.84,602.52c-24.19-4.33-45.58,15.49-43.95,40.66
		c14.52,0,29.07,0,43.95,0C896.84,629.28,896.84,615.86,896.84,602.52z M124.93,643.15c14.97,0,29.5,0,43.99,0
		c2.05-24.87-20.31-45.45-43.99-40.52C124.93,615.92,124.93,629.31,124.93,643.15z M896.69,245.96c0-13.65,0-27.29,0-40.88
		c-12.58,0-24.58,0-36.55,0C859.94,228.07,876.24,246.12,896.69,245.96z"/>
</g>
<circle class="st1" cx="218.68" cy="429.13" r="31.87"/>
<path class="st0" d="M530.36,239.34c-102,0-184.69,82.69-184.69,184.69s82.69,184.68,184.69,184.68s184.68-82.68,184.68-184.68
	S632.36,239.34,530.36,239.34z M519.94,359.9c-0.11,15-6.46,26.95-19.15,34.95c-8.28,5.23-12.26,12.14-11.66,21.86
	c0.21,3.41,0.25,6.86-0.02,10.26c-0.41,5.3,1.7,9.15,5.04,13.23c2.72,3.32,5,8.12,5.06,12.3c0.41,30.8,0.25,61.6,0.21,92.4
	c-0.01,13.56-8.58,22.95-20.66,22.8c-11.86-0.15-20.16-9.4-20.19-22.64c-0.05-15.61-0.01-31.23-0.01-46.84
	c0-15.4,0.13-30.8-0.08-46.2c-0.07-5.08,1.12-9.26,5.22-12.4c4.11-3.15,5.53-7.33,5.18-12.42c-0.25-3.62-0.22-7.27-0.02-10.9
	c0.52-9.48-3.43-16.23-11.47-21.3c-12.91-8.16-19.29-20.24-19.36-35.51c-0.09-18.82-0.05-37.64-0.01-56.47
	c0.02-7.65,3.81-12.31,9.93-12.46c6.35-0.15,10.35,4.65,10.37,12.66c0.05,14.76-0.01,29.52,0.04,44.28
	c0.01,4.17-0.98,9.69,5.37,9.54c6.29-0.16,5.05-5.74,5.07-9.85c0.07-14.76-0.01-29.51,0.05-44.27c0.02-7.62,3.89-12.28,10.03-12.36
	c6.15-0.08,10.23,4.62,10.26,12.12c0.06,15.4,0.04,30.81,0,46.21c-0.01,4.06,0.1,8.37,5.52,8.21c4.93-0.15,5.02-4.26,5.01-8.09
	c-0.04-15.18-0.04-30.37-0.01-45.56c0.02-8.11,3.83-12.88,10.15-12.89s10.15,4.77,10.16,12.87
	C520,322.26,520.09,341.08,519.94,359.9z M622.73,545.97c0.01,8.4-3.28,14.99-10.68,19.12c-6.94,3.87-14.01,3.58-20.69-0.69
	c-6.91-4.42-9.57-11.04-9.55-19.13c0.08-35.52,0.04-71.03,0.03-106.54c0-11.02-1.39-12.05-11.98-15.31
	c-3.36-1.03-8.11-5.52-8.08-8.38c0.38-32.42-4.06-65.15,3.91-97.13c2.22-8.89,7.02-17.35,11.81-25.31
	c4.08-6.79,11.19-10.33,19.09-11.86c14.54-2.8,26.07,6.48,26.1,21.34c0.09,40.86,0.03,81.73,0.03,122.59
	C622.72,465.1,622.71,505.54,622.73,545.97z"/>
<circle class="st1" cx="811.13" cy="424.03" r="31.87"/>
</svg>
